<svg xmlns="http://www.w3.org/2000/svg" width="16" height="16" viewBox="0 0 16 16"><path d="M15.2,0H.7A.681.681,0,0,0,0,.7V15.4a.666.666,0,0,0,.7.6H15.3a.681.681,0,0,0,.7-.7V.7A.845.845,0,0,0,15.2,0ZM4.671,13.6H2.385V6H4.77v7.6ZM3.578,5A1.426,1.426,0,0,1,2.186,3.6,1.363,1.363,0,0,1,3.578,2.2,1.363,1.363,0,0,1,4.969,3.6,1.588,1.588,0,0,1,3.578,5Zm9.938,8.6H11.13V9.9c0-.9,0-2-1.193-2s-1.391,1-1.391,2v3.8H6.161V6H8.447V7h0a2.423,2.423,0,0,1,2.186-1.2c2.385,0,2.783,1.6,2.783,3.6v4.2Z" fill="#1d1d1d"/></svg>